<svg width="64" height="64" viewBox="0 0 64 64" fill="none" xmlns="http://www.w3.org/2000/svg">
<path d="M63.3854 26.0632H32.6817V38.3662H50.3242C50.0406 40.1074 49.4037 41.8202 48.4712 43.3821C47.4027 45.1715 46.0818 46.5338 44.7279 47.5713C40.6723 50.679 35.944 51.3145 32.6602 51.3145C24.3651 51.3145 17.2774 45.9532 14.5336 38.6682C14.4229 38.4038 14.3494 38.1307 14.2599 37.8608C13.6535 36.0067 13.3223 34.043 13.3223 32.002C13.3223 29.8779 13.681 27.8446 14.3351 25.9243C16.9152 18.3504 24.1626 12.6935 32.6662 12.6935C34.3766 12.6935 36.0237 12.8971 37.5857 13.3032C41.1553 14.2312 43.6804 16.059 45.2276 17.5047L54.5634 8.36202C48.8845 3.15511 41.4814 7.87247e-09 32.6507 7.87247e-09C25.5911 -0.000151945 19.0733 2.19942 13.7323 5.91676C9.40083 8.93143 5.84843 12.9677 3.451 17.6553C1.22104 22.0018 0 26.8184 0 31.9972C0 37.1763 1.22291 42.043 3.45287 46.3492V46.3782C5.80827 50.9499 9.25266 54.8861 13.4389 57.887C17.0961 60.5085 23.6538 64 32.6507 64C37.8246 64 42.41 63.0672 46.454 61.319C49.3713 60.0579 51.9561 58.4131 54.2962 56.2992C57.3884 53.5059 59.81 50.051 61.4629 46.076C63.1158 42.1009 64 37.6059 64 32.7324C64 30.4628 63.772 28.1579 63.3854 26.063V26.0632Z" fill="#0C1821"/>
</svg>
