<svg width="346" height="173" viewBox="0 0 346 173" fill="none" xmlns="http://www.w3.org/2000/svg">
<g filter="url(#filter0_g_211_721)">
<path d="M273.096 58.0353L274.746 56.1572V56.1572L273.096 58.0353ZM258.901 63.3476L256.692 64.5187V64.5187L258.901 63.3476ZM309.514 164.796L307.014 164.786V164.786L309.514 164.796ZM269.564 135.07L271.177 133.16V133.16L269.564 135.07ZM140.891 32.8176L142.127 30.6443V30.6443L140.891 32.8176ZM165.101 103.412L162.863 104.526V104.526L165.101 103.412ZM174.01 124.663L176.486 125.008V125.008L174.01 124.663ZM138.634 105.765L140.063 103.713V103.713L138.634 105.765ZM4.02942 10.3C3.81955 8.93533 4.75574 7.65893 6.12039 7.44909L28.359 4.02945C29.7237 3.81961 31.0001 4.75578 31.2099 6.12045C31.4198 7.48512 30.4836 8.76152 29.119 8.97137L9.35129 12.011L12.391 31.7787C12.6008 33.1434 11.6646 34.4198 10.3 34.6296C8.9353 34.8395 7.65887 33.9033 7.44904 32.5386L4.02942 10.3ZM339.497 117.177V114.677C339.099 114.677 338.084 114.796 337.422 115.786C336.844 116.649 337.012 117.505 337.063 117.728C337.132 118.032 337.243 118.25 337.286 118.333C337.341 118.438 337.393 118.517 337.423 118.561C337.482 118.649 337.533 118.711 337.55 118.732C337.573 118.759 337.589 118.778 337.595 118.784C337.607 118.797 337.587 118.774 337.504 118.692C337.351 118.542 337.096 118.299 336.729 117.956C336.001 117.276 334.888 116.255 333.404 114.907C330.44 112.214 326.021 108.24 320.294 103.126C308.841 92.8972 292.166 78.1164 271.446 59.9135L273.096 58.0353L274.746 56.1572C295.474 74.3673 312.159 89.1572 323.624 99.3963C329.356 104.515 333.786 108.5 336.766 111.206C338.254 112.558 339.388 113.597 340.142 114.302C340.516 114.652 340.812 114.933 341.015 115.133C341.11 115.226 341.218 115.335 341.31 115.437C341.337 115.467 341.452 115.594 341.564 115.76C341.569 115.767 341.823 116.113 341.938 116.617C341.989 116.843 342.157 117.701 341.578 118.566C340.915 119.557 339.899 119.677 339.497 119.677V117.177ZM273.096 58.0353L271.446 59.9135C263.554 52.9797 258.176 48.6396 254.566 46.085C252.755 44.8036 251.458 44.021 250.556 43.5849C249.527 43.0873 249.411 43.2416 249.757 43.1842L249.347 40.7179L248.938 38.2517C250.246 38.0346 251.601 38.5362 252.733 39.0837C253.992 39.6928 255.546 40.6531 257.454 42.0035C261.282 44.7122 266.816 49.1904 274.746 56.1572L273.096 58.0353ZM249.347 40.7179L249.757 43.1842C250.103 43.1267 250.673 42.8803 251.011 42.2703C251.262 41.8151 251.187 41.4922 251.204 41.6637C251.238 42.005 251.471 42.8593 252.202 44.5689C253.615 47.8704 256.428 53.3471 261.11 62.1765L258.901 63.3476L256.692 64.5187C252.042 55.7478 249.117 50.0693 247.605 46.5358C246.874 44.8279 246.348 43.3448 246.229 42.1632C246.17 41.5732 246.169 40.6925 246.636 39.8498C247.187 38.8524 248.111 38.3889 248.938 38.2517L249.347 40.7179ZM258.901 63.3476L261.11 62.1765C270.421 79.7373 286.902 110.136 297.359 130.492L295.135 131.634L292.912 132.777C282.472 112.455 266.045 82.1584 256.692 64.5187L258.901 63.3476ZM295.135 131.634L297.359 130.492C302.59 140.675 306.22 148.173 308.544 153.574C309.706 156.273 310.56 158.49 311.126 160.281C311.676 162.023 312.019 163.553 312.014 164.806L309.514 164.796L307.014 164.786C307.015 164.333 306.87 163.407 306.358 161.788C305.862 160.22 305.08 158.173 303.951 155.551C301.695 150.309 298.129 142.932 292.912 132.777L295.135 131.634ZM309.514 164.796L312.014 164.806C312.012 165.272 311.985 166.523 311.058 167.48C309.904 168.67 308.404 168.468 307.638 168.256C306.818 168.028 305.932 167.565 305.012 167.001C304.054 166.413 302.892 165.61 301.488 164.571C295.903 160.438 285.847 152.09 267.951 136.98L269.564 135.07L271.177 133.16C289.127 148.316 299.038 156.537 304.463 160.553C305.812 161.551 306.843 162.259 307.626 162.739C308.446 163.242 308.849 163.403 308.975 163.438C309.154 163.487 308.257 163.186 307.469 163.999C306.908 164.578 307.012 165.173 307.014 164.786L309.514 164.796ZM269.564 135.07L267.951 136.98C250.019 121.839 224.21 99.8977 199.713 79.9371C175.147 59.9203 152.113 42.0731 139.656 34.9909L140.891 32.8176L142.127 30.6443C155.022 37.9753 178.401 56.1213 202.872 76.0609C227.412 96.0567 253.264 118.035 271.177 133.16L269.564 135.07ZM140.891 32.8176L139.656 34.9909C138.849 34.5323 138.533 34.5198 138.568 34.52C138.825 34.5217 139.222 34.3339 139.405 34.0315C139.465 33.9318 139.342 34.0876 139.336 34.8086C139.331 35.4712 139.425 36.3764 139.646 37.5365C140.539 42.2371 143.206 49.6359 146.69 58.0198C153.615 74.6828 163.411 94.408 167.339 102.298L165.101 103.412L162.863 104.526C158.944 96.6538 149.073 76.7821 142.073 59.9386C138.595 51.5692 135.735 43.7373 134.734 38.4705C134.48 37.1387 134.327 35.881 134.337 34.7681C134.345 33.7136 134.498 32.4813 135.129 31.4394C135.884 30.1947 137.148 29.5105 138.601 29.5201C139.832 29.5282 141.043 30.0279 142.127 30.6443L140.891 32.8176ZM165.101 103.412L167.339 102.298C169.404 106.445 171.815 110.992 173.594 114.84C174.49 116.779 175.272 118.636 175.799 120.273C176.298 121.82 176.693 123.524 176.486 125.008L174.01 124.663L171.533 124.317C171.574 124.029 171.506 123.252 171.04 121.807C170.604 120.453 169.92 118.808 169.055 116.938C167.312 113.166 165.021 108.86 162.863 104.526L165.101 103.412ZM174.01 124.663L176.486 125.008C176.376 125.797 176.051 126.818 175.144 127.591C174.23 128.369 173.131 128.549 172.202 128.51C170.498 128.439 168.342 127.587 165.747 126.253C160.378 123.493 151.527 117.787 137.206 107.817L138.634 105.765L140.063 103.713C154.417 113.707 163.006 119.222 168.033 121.806C170.635 123.144 171.915 123.494 172.41 123.515C172.581 123.522 172.271 123.47 171.903 123.783C171.542 124.091 171.52 124.414 171.533 124.317L174.01 124.663ZM138.634 105.765L137.206 107.817C108.499 87.8309 57.5089 50.4325 5.02182 11.9359L6.50037 9.92004L7.97891 7.90414C60.4946 46.4216 111.42 83.7722 140.063 103.713L138.634 105.765Z" fill="#B23A48"/>
</g>
<defs>
<filter id="filter0_g_211_721" x="0" y="0" width="346" height="172.418" filterUnits="userSpaceOnUse" color-interpolation-filters="sRGB">
<feFlood flood-opacity="0" result="BackgroundImageFix"/>
<feBlend mode="normal" in="SourceGraphic" in2="BackgroundImageFix" result="shape"/>
<feTurbulence type="fractalNoise" baseFrequency="0.05000000074505806 0.05000000074505806" numOctaves="3" seed="4198" />
<feDisplacementMap in="shape" scale="8" xChannelSelector="R" yChannelSelector="G" result="displacedImage" width="100%" height="100%" />
<feMerge result="effect1_texture_211_721">
<feMergeNode in="displacedImage"/>
</feMerge>
</filter>
</defs>
</svg>
