<svg width="89" height="145" viewBox="0 0 89 145" fill="none" xmlns="http://www.w3.org/2000/svg">
<g filter="url(#filter0_g_125_597)">
<path d="M55.333 104.131C56.2174 101.941 46.6959 74.1983 31.7952 48.6436C29.7145 45.0752 27.1814 44.7459 25.1452 44.9367C23.109 45.1275 20.9633 46.3361 19.2859 48.7539C11.4012 60.1186 11.1795 73.8089 7.6114 82.495C6.23463 85.8465 7.31624 87.5906 9.5512 88.4205C26.8699 94.8508 53.7571 86.0337 73.0939 88.3674C76.7906 88.8136 78.2484 89.1499 79.6559 88.6141C81.0633 88.0783 82.3594 86.7822 81.9101 83.0502C80.6892 72.9082 73.1066 47.3217 67.3206 16.9187C65.2591 6.08642 65.3534 4.51605 66.0717 10.2059C66.7901 15.8957 68.2268 28.8755 68.65 46.7531C69.0731 64.6308 68.4392 87.013 67.3595 103.147C66.2799 119.28 64.7737 128.487 63.222 137.973" stroke="#B23A48" stroke-width="6" stroke-linecap="round"/>
</g>
<defs>
<filter id="filter0_g_125_597" x="0" y="0" width="89.0005" height="144.974" filterUnits="userSpaceOnUse" color-interpolation-filters="sRGB">
<feFlood flood-opacity="0" result="BackgroundImageFix"/>
<feBlend mode="normal" in="SourceGraphic" in2="BackgroundImageFix" result="shape"/>
<feTurbulence type="fractalNoise" baseFrequency="0.05000000074505806 0.05000000074505806" numOctaves="3" seed="9943" />
<feDisplacementMap in="shape" scale="8" xChannelSelector="R" yChannelSelector="G" result="displacedImage" width="100%" height="100%" />
<feMerge result="effect1_texture_125_597">
<feMergeNode in="displacedImage"/>
</feMerge>
</filter>
</defs>
</svg>
