<svg width="164" height="89" viewBox="0 0 164 89" fill="none" xmlns="http://www.w3.org/2000/svg">
<g filter="url(#filter0_g_125_605)">
<path d="M35.497 78.4208C40.1122 78.4208 45.9335 75.5378 52.1555 70.0165C66.2353 57.5222 66.6324 32.8553 67.5741 29.853C67.894 28.8329 70.3991 30.9222 72.311 30.3422C77.1566 28.8723 79.0272 22.1493 81.4392 19.0238C86.3039 12.7202 97.9549 14.0393 105.419 7.70918C107.033 6.34105 109.139 7.02242 111.381 9.13444C116.952 14.3829 118.796 29.9893 117.734 48.0182C117.109 58.6339 107.404 66.2141 97.3107 74.561C80.0878 88.8044 51.56 79.9823 19.4824 69.8113C12.5713 67.62 9.2463 64.2989 7.7832 61.6075C6.3201 58.9161 7.11445 56.1749 8.5278 53.6096C16.9111 38.3934 45.5973 21.2817 75.0944 12.3248C110.886 13.1979 137.835 18.9959 147.087 22.4407C151.179 23.8201 154.048 24.4511 157.003 25.1011" stroke="#B23A48" stroke-width="6" stroke-linecap="round"/>
</g>
<defs>
<filter id="filter0_g_125_605" x="0" y="0" width="164.004" height="88.9985" filterUnits="userSpaceOnUse" color-interpolation-filters="sRGB">
<feFlood flood-opacity="0" result="BackgroundImageFix"/>
<feBlend mode="normal" in="SourceGraphic" in2="BackgroundImageFix" result="shape"/>
<feTurbulence type="fractalNoise" baseFrequency="0.05000000074505806 0.05000000074505806" numOctaves="3" seed="9943" />
<feDisplacementMap in="shape" scale="8" xChannelSelector="R" yChannelSelector="G" result="displacedImage" width="100%" height="100%" />
<feMerge result="effect1_texture_125_605">
<feMergeNode in="displacedImage"/>
</feMerge>
</filter>
</defs>
</svg>
