<svg width="89" height="86" viewBox="0 0 89 86" fill="none" xmlns="http://www.w3.org/2000/svg">
<g filter="url(#filter0_g_125_599)">
<path d="M76.3797 37.7337C76.0014 38.1045 63.8676 46.8455 41.5825 61.8774C23.7345 73.9163 11.3826 77.7592 7.72118 78.9369C3.64751 80.2471 17.8643 61.0767 24.4484 29.0378C26.7003 18.0797 25.7798 10.78 28.0304 7.61298C31.1857 3.17307 43.4632 23.604 57.5953 44.5979C64.2836 54.5337 71.3586 62.0789 74.0992 66.3703C76.8397 70.6617 75.381 71.2322 71.4477 72.2525C50.4787 77.6921 34.0853 77.1673 25.444 76.2792C21.2105 75.8441 32.957 63.1197 45.2702 47.2599C52.5959 37.8242 60.8968 24.6817 66.1494 18.8364C71.402 12.991 73.0451 14.6136 75.0897 18.7777C77.1343 22.9418 79.5308 29.5983 81.9999 36.4565" stroke="#B23A48" stroke-width="6" stroke-linecap="round"/>
</g>
<defs>
<filter id="filter0_g_125_599" x="0" y="0" width="89.0007" height="86" filterUnits="userSpaceOnUse" color-interpolation-filters="sRGB">
<feFlood flood-opacity="0" result="BackgroundImageFix"/>
<feBlend mode="normal" in="SourceGraphic" in2="BackgroundImageFix" result="shape"/>
<feTurbulence type="fractalNoise" baseFrequency="0.05000000074505806 0.05000000074505806" numOctaves="3" seed="9943" />
<feDisplacementMap in="shape" scale="8" xChannelSelector="R" yChannelSelector="G" result="displacedImage" width="100%" height="100%" />
<feMerge result="effect1_texture_125_599">
<feMergeNode in="displacedImage"/>
</feMerge>
</filter>
</defs>
</svg>
