<svg width="89" height="122" viewBox="0 0 89 122" fill="none" xmlns="http://www.w3.org/2000/svg">
<g filter="url(#filter0_g_125_607)">
<path d="M82.0001 7.02245C82.0001 6.53457 70.576 13.957 45.8271 33.2361C31.8824 44.0988 17.6224 60.1456 11.1294 69.5407C4.63647 78.9359 6.9812 81.9583 10.1624 85.0213C27.565 101.777 56.9864 112.641 66.9257 114.928C72.2038 116.142 70.2232 101.886 69.2599 84.17C67.359 49.2098 63.6237 24.2455 60.9803 19.4472C55.1298 8.8272 41.0832 14.6692 37.119 16.1321C35.9759 18.7879 44.3275 39.4397 58.676 71.0985C64.8315 83.7774 68.7013 89.5803 72.6883 95.5591" stroke="#B23A48" stroke-width="6" stroke-linecap="round"/>
</g>
<defs>
<filter id="filter0_g_125_607" x="0" y="0" width="89.0001" height="121.999" filterUnits="userSpaceOnUse" color-interpolation-filters="sRGB">
<feFlood flood-opacity="0" result="BackgroundImageFix"/>
<feBlend mode="normal" in="SourceGraphic" in2="BackgroundImageFix" result="shape"/>
<feTurbulence type="fractalNoise" baseFrequency="0.05000000074505806 0.05000000074505806" numOctaves="3" seed="9943" />
<feDisplacementMap in="shape" scale="8" xChannelSelector="R" yChannelSelector="G" result="displacedImage" width="100%" height="100%" />
<feMerge result="effect1_texture_125_607">
<feMergeNode in="displacedImage"/>
</feMerge>
</filter>
</defs>
</svg>
